<?xml version="1.0" encoding="UTF-8"?>
<svg xmlns="http://www.w3.org/2000/svg" xmlns:xlink="http://www.w3.org/1999/xlink" width="142.529" height="142.529" viewBox="0 0 142.529 142.529">
<path fill="none" stroke-width="0.79701" stroke-linecap="butt" stroke-linejoin="round" stroke="rgb(0%, 0%, 0%)" stroke-opacity="1" stroke-miterlimit="1" d="M -0.0016875 -0.00003125 L -0.0016875 113.386687 L 113.388937 113.386687 L 113.388937 -0.00003125 Z M -0.0016875 -0.00003125 " transform="matrix(1, 0, 0, -1, 14.572, 127.957)"/>
<path fill="none" stroke-width="0.79701" stroke-linecap="butt" stroke-linejoin="round" stroke="rgb(0%, 0%, 0%)" stroke-opacity="1" stroke-miterlimit="1" d="M -0.0016875 -0.00003125 L 113.388937 113.386687 " transform="matrix(1, 0, 0, -1, 14.572, 127.957)"/>
<path fill="none" stroke-width="0.79701" stroke-linecap="butt" stroke-linejoin="round" stroke="rgb(0%, 0%, 0%)" stroke-opacity="1" stroke-miterlimit="1" d="M 113.388937 56.695281 C 113.388937 88.003875 88.006125 113.386687 56.693625 113.386687 C 25.381125 113.386687 -0.0016875 88.003875 -0.0016875 56.695281 C -0.0016875 25.382781 25.381125 -0.00003125 56.693625 -0.00003125 C 88.006125 -0.00003125 113.388937 25.382781 113.388937 56.695281 Z M 113.388937 56.695281 " transform="matrix(1, 0, 0, -1, 14.572, 127.957)"/>
</svg>
